<svg width="42" height="42" viewBox="0 0 42 42" fill="none" xmlns="http://www.w3.org/2000/svg">
<path d="M2.07888 7.45051C1.27374 6.71627 0.899162 5.90408 0.853954 4.96679C0.772149 3.23578 1.48687 1.85752 3.02394 0.930487C5.39197 -0.494935 7.74063 -0.170882 10.0226 1.14584C12.0009 2.28618 13.482 3.92285 14.6984 5.74821C16.1881 7.98171 17.611 10.2603 18.9587 12.5718C22.5387 18.7083 26.0585 24.8776 29.6148 31.0264C30.5513 32.6467 31.6018 34.2033 32.9602 35.5344C33.492 36.0554 34.0969 36.5332 34.7406 36.9229C36.0774 37.7351 37.4466 37.6982 38.7748 36.8552C39.4142 36.4492 39.7242 35.8523 39.8469 35.1488C39.8749 34.9868 39.8921 34.8227 39.9309 34.55C40.7597 35.2945 41.1235 36.1415 41.1665 37.1014C41.2699 39.4107 39.5649 41.3817 37.1086 41.8391C34.3122 42.358 32.0948 41.2751 30.1573 39.503C28.067 37.5874 26.5256 35.2801 25.1306 32.8825C21.4645 26.5758 17.85 20.2445 14.1559 13.9521C12.8814 11.7781 11.4843 9.66556 10.0505 7.58178C9.30354 6.49681 8.31542 5.57593 7.07328 4.96064C6.12176 4.49097 5.13149 4.39047 4.10678 4.72683C2.9163 5.11856 2.2554 5.90819 2.13269 7.1039C2.13054 7.18594 2.11117 7.26798 2.07888 7.45051Z" fill="black"/>
<path d="M41.6178 6.33236C41.5468 6.03087 41.4951 5.7868 41.4348 5.54684C40.8923 3.4405 39.1701 2.52987 37.0087 3.21899C35.4028 3.73173 34.2575 4.79208 33.3404 6.09855C31.8658 8.20284 31.2135 10.5574 31.0391 13.0534C30.7636 16.9974 31.7388 20.7199 33.2715 24.3378C34.6472 27.5824 36.4512 30.6097 38.5049 33.5056C38.8924 34.0512 38.4705 35.0931 37.717 35.4274C36.9463 35.7699 36.2058 35.6222 35.4975 35.2633C34.3845 34.6972 33.6375 33.7784 32.9788 32.7898C30.7743 29.4796 29.1124 25.9314 27.9585 22.172C27.1685 19.596 26.4581 16.9994 26.5506 14.2758C26.6712 10.7727 27.4333 7.42758 29.3621 4.3983C30.6172 2.42732 32.2834 0.872684 34.6945 0.263547C36.8408 -0.27996 38.8687 -0.0174355 40.5995 1.41824C41.9579 2.54833 42.3928 4.65877 41.6178 6.33236Z" fill="black"/>
<path d="M0.383236 35.7104C0.512402 36.1616 0.594206 36.5247 0.721219 36.8733C1.39288 38.7048 2.97085 39.435 4.91049 38.8238C6.63055 38.2803 7.84255 37.1461 8.79407 35.735C10.6648 32.9601 11.1556 29.8672 10.9856 26.6513C10.7337 21.8869 8.97921 17.5553 6.61332 13.4246C5.6618 11.7633 4.58973 10.1615 3.55641 8.5433C3.23134 8.03466 3.39925 7.57524 3.66404 7.14659C4.01494 6.58052 4.59403 6.35697 5.27 6.40824C6.04499 6.46977 6.70589 6.79177 7.30221 7.2635C8.43241 8.15772 9.15143 9.34523 9.87045 10.5245C12.4645 14.77 14.2793 19.3068 15.1512 24.1471C15.9714 28.7002 15.2158 33.0749 12.9166 37.1482C11.7993 39.1273 10.2364 40.7579 7.93081 41.5413C5.82972 42.253 3.77168 42.1935 1.86649 40.9568C0.16796 39.8554 -0.484326 37.624 0.383236 35.7104Z" fill="black"/>
<path d="M9.3207 26.1452C9.52091 29.3221 9.10112 32.8826 6.81274 35.3294C6.24871 35.9324 5.73636 36.2544 4.97428 36.64C4.27463 36.9927 3.0002 37.005 2.41034 36.4574C1.78174 35.8729 1.48896 35.2043 1.72146 34.3306C2.3759 32.858 2.15416 35.0013 3.75151 34.3901C5.54476 33.5553 7.12488 29.8964 8.06349 25.4458C8.06564 25.4314 8.59737 22.8513 8.61675 22.7754C8.68564 22.5109 9.19154 23.3969 9.3207 26.1452Z" fill="black"/>
<path d="M32.511 15.4863C32.3108 12.3093 32.7306 8.74885 35.019 6.30205C35.583 5.69906 36.0954 5.37706 36.8574 4.99148C37.5571 4.63871 38.8315 4.62641 39.4214 5.17401C40.05 5.75854 40.3428 6.42716 40.1103 7.30087C39.4558 8.77346 39.6775 6.6302 38.0802 7.24139C36.2869 8.07613 34.7068 11.7351 33.7682 16.1857C33.7661 16.2 33.2343 18.7801 33.215 18.856C33.1461 19.1226 32.6402 18.2346 32.511 15.4863Z" fill="black"/>
</svg>
