<svg width="30" height="30" viewBox="0 0 30 30" fill="none" xmlns="http://www.w3.org/2000/svg">
<path d="M1.48491 5.3218C0.909816 4.79733 0.642259 4.2172 0.609967 3.54771C0.551535 2.31127 1.06205 1.3268 2.15995 0.664634C3.85141 -0.353525 5.52902 -0.122059 7.15897 0.818456C8.5721 1.63298 9.63003 2.80204 10.4988 4.10586C11.5629 5.70122 12.5793 7.32881 13.5419 8.97984C16.0991 13.3631 18.6132 17.7697 21.1535 22.1617C21.8223 23.319 22.5727 24.431 23.543 25.3817C23.9228 25.7538 24.3549 26.0952 24.8147 26.3735C25.7696 26.9536 26.7476 26.9273 27.6963 26.3252C28.153 26.0351 28.3744 25.6088 28.4621 25.1063C28.4821 24.9906 28.4944 24.8734 28.522 24.6785C29.114 25.2103 29.3739 25.8154 29.4047 26.501C29.4785 28.1505 28.2606 29.5584 26.5061 29.8851C24.5087 30.2557 22.9249 29.4822 21.5409 28.2165C20.0479 26.8482 18.9469 25.2001 17.9504 23.4875C15.3318 18.9827 12.75 14.4603 10.1113 9.96577C9.20102 8.4129 8.20306 6.90397 7.17896 5.41555C6.64538 4.64058 5.93959 3.98281 5.05234 3.54331C4.37268 3.20783 3.66535 3.13605 2.93341 3.37631C2.08307 3.65612 1.611 4.22013 1.52335 5.07421C1.52182 5.13281 1.50798 5.19141 1.48491 5.3218Z" fill="white"/>
<path d="M29.7271 4.52313C29.6763 4.30778 29.6394 4.13345 29.5964 3.96205C29.2089 2.45752 27.9787 1.80707 26.4349 2.2993C25.2878 2.66554 24.4697 3.42293 23.8147 4.35612C22.7613 5.85919 22.2954 7.54099 22.1709 9.32386C21.9741 12.141 22.6706 14.7999 23.7655 17.3842C24.748 19.7018 26.0366 21.8641 27.5036 23.9326C27.7804 24.3223 27.479 25.0665 26.9408 25.3053C26.3903 25.5499 25.8613 25.4445 25.3554 25.1881C24.5604 24.7838 24.0269 24.1275 23.5563 23.4213C21.9817 21.0569 20.7946 18.5225 19.9704 15.8372C19.4061 13.9971 18.8987 12.1425 18.9648 10.197C19.0509 7.69481 19.5953 5.30543 20.973 3.14166C21.8695 1.73382 23.0597 0.623363 24.7819 0.188265C26.3149 -0.199954 27.7634 -0.0124365 28.9997 1.01305C29.97 1.82025 30.2806 3.32771 29.7271 4.52313Z" fill="white"/>
<path d="M0.27374 25.5075C0.366001 25.8298 0.424433 26.0891 0.515157 26.3381C0.994915 27.6463 2.12204 28.1679 3.50749 27.7313C4.7361 27.3431 5.60182 26.533 6.28148 25.5251C7.61773 23.5429 7.96832 21.3338 7.84684 19.0367C7.66693 15.6335 6.41372 12.5395 4.7238 9.58904C4.04415 8.40241 3.27838 7.25826 2.54029 6.10239C2.3081 5.73908 2.42804 5.41092 2.61717 5.10474C2.86782 4.70041 3.28145 4.54073 3.76429 4.57735C4.31785 4.6213 4.78992 4.8513 5.21586 5.18825C6.02315 5.82698 6.53673 6.6752 7.05032 7.51756C8.90323 10.5501 10.1995 13.7906 10.8223 17.2479C11.4081 20.5002 10.8684 23.625 9.22615 26.5344C8.42809 27.9481 7.31173 29.1128 5.66487 29.6724C4.16408 30.1808 2.69406 30.1383 1.33321 29.2549C0.119971 28.4682 -0.345947 26.8743 0.27374 25.5075Z" fill="white"/>
<path d="M6.65758 18.6753C6.80058 20.9445 6.50073 23.4877 4.86617 25.2354C4.4633 25.6661 4.09733 25.8961 3.55299 26.1716C3.05324 26.4235 2.14293 26.4323 1.7216 26.0412C1.2726 25.6236 1.06347 25.1461 1.22954 24.522C1.697 23.4701 1.53862 25.001 2.67958 24.5645C3.96047 23.9682 5.08913 21.3547 5.75956 18.1757C5.7611 18.1655 6.14091 16.3225 6.15475 16.2683C6.20396 16.0793 6.56531 16.7122 6.65758 18.6753Z" fill="white"/>
<path d="M23.222 11.0616C23.079 8.7924 23.3789 6.2492 25.0134 4.50148C25.4163 4.07078 25.7823 3.84078 26.3266 3.56536C26.8263 3.31338 27.7367 3.30459 28.158 3.69574C28.607 4.11326 28.8161 4.59084 28.65 5.21492C28.1826 6.26678 28.341 4.73588 27.2 5.17244C25.9191 5.76868 24.7904 8.3822 24.12 11.5612C24.1185 11.5715 23.7387 13.4144 23.7248 13.4686C23.6756 13.6591 23.3143 13.0247 23.222 11.0616Z" fill="white"/>
</svg>
